<svg id="Layer_1" data-name="Layer 1" xmlns="http://www.w3.org/2000/svg" viewBox="0 0 126.05 36.88"><defs><style>.cls-1{fill:#022d79;}.cls-2{fill:#cbb069;}.cls-3{fill:#cbb16a;}.cls-4{fill:#cbb169;}.cls-5{fill:#fff;}.cls-6{fill:#044199;}</style></defs><title>Untitled-1</title><path class="cls-1" d="M19.67,6.77h-.31c-3.46,0-5.3,2.7-5.81,5.83h-.2V6.49H29.14V12.6h-.2c-.51-3.13-2.34-5.83-5.81-5.83h-.31V24.34h2.29v.28H17.38v-.28h2.29Z" transform="translate(-11.09 -0.77)"/><path class="cls-1" d="M46,6c4.25,0,8.76,3.77,8.76,9.52S50.07,25.08,46,25.08s-8.76-3.77-8.76-9.52S41.72,6,46,6ZM42.13,23A4.18,4.18,0,0,0,46,24.8,4.18,4.18,0,0,0,49.82,23c1.27-2.06,1.3-6.14,1.3-7.44s0-5.3-1.3-7.44A4.16,4.16,0,0,0,46,6.31a4.16,4.16,0,0,0-3.85,1.81c-1.27,2.14-1.3,6.14-1.3,7.44S40.85,20.93,42.13,23Z" transform="translate(-11.09 -0.77)"/><path class="cls-1" d="M68.69,18.41a12.11,12.11,0,0,0,.46,4.07A3.74,3.74,0,0,0,73,24.8c3.08,0,5.25-1.6,5.25-5.22V6.77H75.87V6.49h4.94v.28H78.49V19.58c0,3.62-2.24,5.5-5.6,5.5-5,0-7.36-1.81-7.36-6.72V6.77H63.24V6.49H71v.28H68.69Z" transform="translate(-11.09 -0.77)"/><path class="cls-1" d="M91,6.77H88.73V6.49h3.74c.61,0,1.2,0,1.81-.05s1.22-.05,1.81-.05c3.64,0,7.56,1.71,7.56,5.88A5.35,5.35,0,0,1,100,17.13a6.8,6.8,0,0,1-2.9.53,5.66,5.66,0,0,1-3-1v7.64h2.29v.28H88.73v-.28H91Zm3.16,9.52A5.41,5.41,0,0,0,97,17.39c2.62,0,3.28-2.5,3.28-5.12,0-3-.92-5.6-4.28-5.6-.46,0-.76.05-1.78.1Z" transform="translate(-11.09 -0.77)"/><path class="cls-1" d="M112.74,18.38h.2c.53,3.74,3.08,6.42,5.75,6.42,2.11,0,4.15-1.12,4.15-3.46,0-2.09-1.3-2.72-5-4.48-3-1.4-4.56-2.27-4.56-5.17S115.56,6,118.49,6a6.37,6.37,0,0,1,2.5.59,2.46,2.46,0,0,0,.89.23.81.81,0,0,0,.84-.71h.2V11.2h-.2c-.53-1.73-1.55-4.89-4.33-4.89a3.11,3.11,0,0,0-3.34,3.06c0,2.42,1.78,3.26,5.12,4.81,2.47,1.12,4.53,2.09,4.53,5a6.21,6.21,0,0,1-6,5.91,7.4,7.4,0,0,1-2.75-.46,5.69,5.69,0,0,0-2-.51,1,1,0,0,0-1,.71h-.2Z" transform="translate(-11.09 -0.77)"/><path class="cls-2" d="M42.66,16.73c.06,0,.07-.11.1-.16a.12.12,0,0,1,.13-.06H43a.09.09,0,0,1,.08.13l0,.14c-.09.28-.12.24.09.45l.09.12a.06.06,0,0,1,0,0,.27.27,0,0,1-.13.14h0l-.06,0-.18-.13a.11.11,0,0,0-.14,0l-.08.05a.79.79,0,0,1-.41.15.69.69,0,0,1-.72-.38.59.59,0,0,1,.07-.65l.14-.14.12-.09c.09-.07.09-.08,0-.19L41.69,16l-.06-.16a.37.37,0,0,1,.1-.39.57.57,0,0,1,.59-.18.47.47,0,0,1,.36.32.41.41,0,0,1,0,.34.71.71,0,0,1-.13.18l-.16.16a.09.09,0,0,0,0,.11l.26.33,0,0m-1,.18a.44.44,0,0,0,.32.42h.1a.67.67,0,0,0,.3-.11l.07-.07a.13.13,0,0,0,0-.18l-.27-.35c-.14-.17-.17-.17-.37,0l-.05.05a.37.37,0,0,0-.1.27m.76-1.15a.23.23,0,0,0-.09-.19.24.24,0,0,0-.23,0,.24.24,0,0,0-.17.19.16.16,0,0,0,0,.09L42,16a.13.13,0,0,0,.21,0,.31.31,0,0,0,.15-.27" transform="translate(-11.09 -0.77)"/><path class="cls-3" d="M49.68,16.41a1.28,1.28,0,0,1-.16.67.9.9,0,0,1-.52.43,1.2,1.2,0,0,1-.66,0,1,1,0,0,1-.64-.47,1.13,1.13,0,0,1-.16-.81,1.8,1.8,0,0,1,.07-.36,1,1,0,0,1,.75-.65,1.08,1.08,0,0,1,.77.11,1,1,0,0,1,.47.55,1.28,1.28,0,0,1,.08.48m-.33-.09a1.31,1.31,0,0,0,0-.15.75.75,0,0,0-.95-.61.7.7,0,0,0-.45.39,1.15,1.15,0,0,0-.1.51A1.05,1.05,0,0,0,48,17a.63.63,0,0,0,.54.33h.2a.61.61,0,0,0,.38-.16.68.68,0,0,0,.2-.31,1,1,0,0,0,.06-.51" transform="translate(-11.09 -0.77)"/><path class="cls-4" d="M45.26,16.44a1.07,1.07,0,0,0,.09.46.6.6,0,0,0,.56.41.69.69,0,0,0,.34,0,.51.51,0,0,0,.24-.2l.13-.24a.09.09,0,0,1,.11,0c.18,0,.2.09.13.26a1,1,0,0,1-.36.43.74.74,0,0,1-.3.11,1.21,1.21,0,0,1-.66-.06.85.85,0,0,1-.48-.48,1.75,1.75,0,0,1-.14-.5.92.92,0,0,1,0-.25,1.58,1.58,0,0,1,.1-.41,1,1,0,0,1,.88-.62,1,1,0,0,1,.44,0,.78.78,0,0,1,.49.52v0a.09.09,0,0,1,0,.08.3.3,0,0,1-.17,0,.1.1,0,0,1-.06,0l-.08-.13a.58.58,0,0,0-.62-.26l-.21.06a.54.54,0,0,0-.31.3,1.19,1.19,0,0,0-.1.53" transform="translate(-11.09 -0.77)"/><path class="cls-3" d="M50.22,17.55h0l0,0a.41.41,0,0,1,0-.22l0,0a.42.42,0,0,1,.19,0,.06.06,0,0,1,.05,0,.85.85,0,0,1,0,.15c0,.07,0,.1-.11.1h-.1" transform="translate(-11.09 -0.77)"/><path class="cls-4" d="M132.3,11.7s-.22.53-.21.55c-.25.46-.48.84-.63,1.15a4.13,4.13,0,0,0-.36.76,4.11,4.11,0,0,0,.47-.7l.63-1,.08-.14c.09,0,.34-.4.42-.42a2.31,2.31,0,0,1-.39-.17" transform="translate(-11.09 -0.77)"/><path class="cls-4" d="M132.08,12.37c.15-2.32.33-4.63,3-5.37.23,2.8-.54,4.79-3,5.37" transform="translate(-11.09 -0.77)"/><path class="cls-4" d="M137.13,14.24a3.61,3.61,0,0,0-.16-.82l-.06-.18-.07-.2-.18.13a7.23,7.23,0,0,0-2,2.24,7.74,7.74,0,0,0-.57,1.2,7.56,7.56,0,0,0-.31,1.11,6.38,6.38,0,0,0-.11,1.65c0,.09,0,.17,0,.24-.22.2-.34.32-.33.34s.13-.06.35-.21c0,.16,0,.24.06.24s0-.11,0-.29l.09-.07a14.11,14.11,0,0,0,1.3-1.08,7,7,0,0,0,1.53-2,5,5,0,0,0,.44-1.45,4.31,4.31,0,0,0,0-.81" transform="translate(-11.09 -0.77)"/><path class="cls-4" d="M132.77,22c.05,0,0-.42.24-1a6.69,6.69,0,0,1,.47-1.06c.2-.39.46-.81.71-1.25a21.21,21.21,0,0,0,1.69-3.32,21.22,21.22,0,0,0-2,3.15c-.25.45-.5.87-.69,1.28a5.41,5.41,0,0,0-.42,1.13,1.77,1.77,0,0,0,0,1.11" transform="translate(-11.09 -0.77)"/><path class="cls-4" d="M135.51,1.32l0-.24-.05-.31-.22.22-2.06,2.06c-.31.32-.62.61-.89.92a2.28,2.28,0,0,0-.54,1,2,2,0,0,0,0,.95,3.8,3.8,0,0,0,.25.65,1.75,1.75,0,0,0,.3.51s.59-.15.23,0a4.77,4.77,0,0,0-.58.18,1.43,1.43,0,0,0,.61-.05,3.76,3.76,0,0,0,1.51-.74,4,4,0,0,0,1.35-2.09,7.11,7.11,0,0,0,.1-3" transform="translate(-11.09 -0.77)"/><path class="cls-4" d="M136.31,30.54a1,1,0,0,0,.08-.28,1.86,1.86,0,0,0,.06-.36,3.06,3.06,0,0,0,0-.49,6.63,6.63,0,0,0-.87-3c-.3-.59-.68-1.2-1.09-1.86-.2-.33-.42-.66-.63-1s-.4-.72-.61-1.1a18.18,18.18,0,0,1-1.75-5.28,19.79,19.79,0,0,1-.13-5.57,19.47,19.47,0,0,1,.43-2.4l.29-1.07.34-1c.1-.31.24-.59.35-.86l.17-.39a3.45,3.45,0,0,1,.17-.36l.33-.64c.1-.2.19-.38.29-.53l.43-.73a1,1,0,0,0,.13-.27s-.07.07-.19.23l-.48.7a5.77,5.77,0,0,0-.31.52l-.36.64a3.41,3.41,0,0,0-.18.36l-.18.39c-.12.27-.27.55-.37.86l-.36,1-.31,1.08a18.93,18.93,0,0,0-.47,2.43,19.46,19.46,0,0,0,.11,5.66A18,18,0,0,0,133,22.59c.22.38.42.76.63,1.11s.44.68.65,1c.42.65.81,1.25,1.12,1.82a6.86,6.86,0,0,1,1,2.89,3.33,3.33,0,0,1,0,.48,2.23,2.23,0,0,1,0,.35,1,1,0,0,0,0,.3" transform="translate(-11.09 -0.77)"/><path class="cls-4" d="M128.87,6.46s0,.3.11.74a7.28,7.28,0,0,0,1.81,3.08c.33.32.57.48.6.45s-.73-.87-1.41-2-1-2.26-1.1-2.23" transform="translate(-11.09 -0.77)"/><path class="cls-4" d="M130.82,9.42a8.76,8.76,0,0,0-.4-1.44,8.34,8.34,0,0,0-1-2,8.5,8.5,0,0,0-1.89-2l-.24-.19,0,.3v.19a8.72,8.72,0,0,0,.3,2.79c.32,1.14.89,2.76,2.27,2.91a3,3,0,0,0,.59,0,1.23,1.23,0,0,0,.29,0c.13,0,.15-.28.11-.56" transform="translate(-11.09 -0.77)"/><path class="cls-4" d="M127.52,14.54s.07.31.33.73a6.68,6.68,0,0,0,2.9,2.51c.46.2.76.26.77.22s-1.09-.55-2.19-1.51-1.72-2-1.81-2" transform="translate(-11.09 -0.77)"/><path class="cls-4" d="M130.74,17.64a9,9,0,0,1-.2-.92,3.62,3.62,0,0,0-.58-1.37,5,5,0,0,0-.67-.79,6.29,6.29,0,0,0-.94-.73,15.08,15.08,0,0,0-2.45-1.19l-.26-.1,0,.27c0,.18,0,.38.08.58a6.51,6.51,0,0,0,2,3.66,6.61,6.61,0,0,0,.9.67,2.06,2.06,0,0,0,1.59.32.85.85,0,0,0,.38-.24c.07-.08.09-.13.08-.14" transform="translate(-11.09 -0.77)"/><path class="cls-4" d="M129.15,23.06c0,.1,1.4.36,3,1.09s2.74,1.61,2.81,1.53-.22-.3-.69-.66a10.44,10.44,0,0,0-4.16-1.88,2.34,2.34,0,0,0-.95-.08" transform="translate(-11.09 -0.77)"/><path class="cls-4" d="M133.25,23.3a3.77,3.77,0,0,0-.82-.86,4.51,4.51,0,0,0-1.2-.64,8.91,8.91,0,0,0-3-.44.72.72,0,0,0-.48.16.46.46,0,0,0-.14.27.58.58,0,0,0,0,.27,1.21,1.21,0,0,0,.24.38l.26.29a8.7,8.7,0,0,0,1.12,1,8.6,8.6,0,0,0,2.21,1.17,7.65,7.65,0,0,0,1.64.39,1.5,1.5,0,0,1,.64.25,1.24,1.24,0,0,0,.09-.61,3,3,0,0,0-.56-1.6" transform="translate(-11.09 -0.77)"/><path class="cls-5" d="M136,15.13c-.31.72-.67,1.41-1,2.09s-.77,1.35-1.21,2c.31-.72.67-1.41,1-2.09s.77-1.35,1.21-2" transform="translate(-11.09 -0.77)"/><path class="cls-6" d="M126.65,27.76c-4.82.06-9.63.09-14.45.14L97.76,28c-4.82,0-9.63,0-14.45,0L68.87,28,54.42,28c-4.81,0-9.63,0-14.45,0L25.53,27.9c-4.82,0-9.63-.08-14.45-.14,4.82-.06,9.63-.09,14.45-.14L40,27.54c4.82,0,9.63,0,14.45,0l14.45,0,14.45,0c4.82,0,9.63,0,14.45,0l14.45.08c4.82,0,9.63.07,14.45.14" transform="translate(-11.09 -0.77)"/><path class="cls-5" d="M134.34,3.43a14.05,14.05,0,0,0-1.07,1.7c-.32.59-.59,1.2-.88,1.81A7.58,7.58,0,0,1,133.1,5a5.76,5.76,0,0,1,1.24-1.61" transform="translate(-11.09 -0.77)"/><path class="cls-5" d="M128.87,6.46c.28.61.52,1.23.82,1.83a9.44,9.44,0,0,0,1,1.7,4.77,4.77,0,0,1-1.21-1.61,8.13,8.13,0,0,1-.65-1.91" transform="translate(-11.09 -0.77)"/><path class="cls-5" d="M133.85,9.31a10.4,10.4,0,0,0-1.77,3.06" transform="translate(-11.09 -0.77)"/><path class="cls-5" d="M127.51,14.44a10.09,10.09,0,0,0,3.1,3.12" transform="translate(-11.09 -0.77)"/><path class="cls-5" d="M129,23a7.73,7.73,0,0,1,1.28.19,9.06,9.06,0,0,1,1.24.38,9.45,9.45,0,0,1,1.17.55l.56.33c.18.12.36.24.53.37l-.57-.29-.58-.28c-.39-.18-.78-.35-1.18-.5s-.8-.29-1.21-.41-.82-.23-1.24-.33" transform="translate(-11.09 -0.77)"/><path class="cls-4" d="M17.6,30.36h-.71v-.09h1.18l.52,0,.52,0c1.13,0,2.1.5,2.1,1.46s-.83,1.09-1.32,1.23V33c.84.15,1.69.55,1.69,1.52,0,1.22-1.18,1.45-2.16,1.45l-.56,0-.56,0H16.89v-.09h.71Zm1,2.58h.85c.54,0,.79-.17.79-1.25s-.26-1.36-1.06-1.36l-.58,0Zm0,2.88c.21,0,.59,0,.84,0,.48,0,1.1-.06,1.1-1.42S20,33,19.44,33h-.86Z" transform="translate(-11.09 -0.77)"/><path class="cls-4" d="M27.05,30.13a2.88,2.88,0,0,1,2.73,3,2.91,2.91,0,0,1-2.73,3,2.91,2.91,0,0,1-2.73-3A2.88,2.88,0,0,1,27.05,30.13Zm-1.2,5.29a1.56,1.56,0,0,0,2.4,0,5.29,5.29,0,0,0,.41-2.32,5.35,5.35,0,0,0-.41-2.32,1.56,1.56,0,0,0-2.4,0,5.35,5.35,0,0,0-.41,2.32A5.29,5.29,0,0,0,25.85,35.42Z" transform="translate(-11.09 -0.77)"/><path class="cls-4" d="M34.14,34a3.77,3.77,0,0,0,.14,1.27,1.17,1.17,0,0,0,1.19.72,1.48,1.48,0,0,0,1.64-1.63v-4h-.73v-.09h1.54v.09h-.72v4a1.59,1.59,0,0,1-1.75,1.72c-1.56,0-2.29-.56-2.29-2.1V30.36h-.71v-.09h2.42v.09h-.72Z" transform="translate(-11.09 -0.77)"/><path class="cls-4" d="M42.21,30.36h-.1a1.89,1.89,0,0,0-1.81,1.82h-.06V30.28h4.92v1.91H45.1a1.89,1.89,0,0,0-1.81-1.82h-.1v5.48h.71v.09H41.5v-.09h.71Z" transform="translate(-11.09 -0.77)"/><path class="cls-4" d="M48.39,30.36h-.71v-.09h2.41v.09h-.71v5.48h.71v.09H47.67v-.09h.71Z" transform="translate(-11.09 -0.77)"/><path class="cls-4" d="M55.56,30.13a2.88,2.88,0,0,1,2.73,3,2.91,2.91,0,0,1-2.68,3c0,.07.06.1.29.21.61.28.51,1.18,1.19,1.18a.53.53,0,0,0,.56-.56c0-.12,0-.18.13-.18s.12.07.12.13c0,.29-.31.81-1.2.81s-1.49-.38-1.49-.82a.76.76,0,0,1,.24-.55.32.32,0,0,0,.06-.21,3,3,0,0,1,0-5.94Zm-1.2,5.29a1.56,1.56,0,0,0,2.4,0,5.29,5.29,0,0,0,.41-2.32,5.35,5.35,0,0,0-.41-2.32,1.56,1.56,0,0,0-2.4,0A5.35,5.35,0,0,0,54,33.1,5.29,5.29,0,0,0,54.37,35.42Z" transform="translate(-11.09 -0.77)"/><path class="cls-4" d="M62.65,34a3.77,3.77,0,0,0,.14,1.27A1.17,1.17,0,0,0,64,36a1.48,1.48,0,0,0,1.64-1.63v-4h-.73v-.09h1.54v.09h-.72v4A1.59,1.59,0,0,1,64,36.07c-1.56,0-2.29-.56-2.29-2.1V30.36h-.71v-.09h2.42v.09h-.72Z" transform="translate(-11.09 -0.77)"/><path class="cls-4" d="M73.59,35.93H68.9v-.09h.71V30.36H68.9v-.09h4.22v1.37h-.06a1.6,1.6,0,0,0-1.64-1.28H70.6V33c.54,0,1.27,0,1.4-1.1h.06v2.32H72c-.12-1.13-.89-1.13-1.4-1.13v2.79h1.18c.82,0,1.37-.37,1.74-1.5h.06Z" transform="translate(-11.09 -0.77)"/><path class="cls-4" d="M82.35,30.06h.06l2.31,5.78h.57v.09h-2.4v-.09h.76l-.77-2H80.94l-.78,2h.68v.09H79.49v-.09h.56Zm.5,3.7-.94-2.36L81,33.76Z" transform="translate(-11.09 -0.77)"/><path class="cls-4" d="M88,30.36h-.71v-.09h1.53l2.8,4v-3.9h-.71v-.09h1.52v.09h-.71V36h-.06l-3.55-5.05v4.9h.72v.09H87.31v-.09H88Z" transform="translate(-11.09 -0.77)"/><path class="cls-4" d="M95.7,30.36H95v-.09h1.45l.5,0,.5,0a3,3,0,0,1,3,3,2.79,2.79,0,0,1-3,2.76l-.46,0-.47,0H95v-.09h.71Zm1,5.47c.31,0,.52,0,.8,0,1.58,0,1.81-1.45,1.81-2.74,0-1.45-.24-2.8-1.89-2.8-.19,0-.48,0-.72,0Z" transform="translate(-11.09 -0.77)"/><path class="cls-4" d="M107.32,34h.06a2.11,2.11,0,0,0,1.79,2c.66,0,1.29-.35,1.29-1.08s-.4-.85-1.55-1.4c-.92-.44-1.42-.71-1.42-1.61a1.72,1.72,0,0,1,1.61-1.76,2,2,0,0,1,.78.18.77.77,0,0,0,.28.07.25.25,0,0,0,.26-.22h.06v1.58h-.06c-.17-.54-.48-1.52-1.35-1.52a1,1,0,0,0-1,1c0,.75.56,1,1.6,1.5.77.35,1.41.65,1.41,1.56a1.94,1.94,0,0,1-1.87,1.84,2.31,2.31,0,0,1-.86-.14,1.78,1.78,0,0,0-.61-.16.31.31,0,0,0-.33.22h-.06Z" transform="translate(-11.09 -0.77)"/><path class="cls-4" d="M114.5,30.36h-.71v-.09H115l.56,0,.56,0c1.14,0,2.36.53,2.36,1.83a1.67,1.67,0,0,1-1.13,1.52,2.12,2.12,0,0,1-.91.17,1.76,1.76,0,0,1-.92-.3v2.38h.71v.09h-2.41v-.09h.71Zm1,3a1.69,1.69,0,0,0,.87.34c.82,0,1-.78,1-1.6s-.29-1.75-1.33-1.75l-.56,0Z" transform="translate(-11.09 -0.77)"/><path class="cls-4" d="M122.87,30.06h.06l2.31,5.78h.57v.09h-2.4v-.09h.76l-.77-2h-1.95l-.78,2h.68v.09H120v-.09h.56Zm.5,3.7-.94-2.36-.93,2.36Z" transform="translate(-11.09 -0.77)"/></svg>